<?xml version="1.0" standalone="no"?>
<!DOCTYPE svg PUBLIC "-//W3C//DTD SVG 20010904//EN"
 "http://www.w3.org/TR/2001/REC-SVG-20010904/DTD/svg10.dtd">
<svg version="1.0" xmlns="http://www.w3.org/2000/svg"
 width="512.000000pt" height="512.000000pt" viewBox="0 0 512.000000 512.000000"
 preserveAspectRatio="xMidYMid meet">

<g transform="translate(0.000000,512.000000) scale(0.100000,-0.100000)"
fill="#000000" stroke="none">
<path d="M3126 4465 c-43 -15 -91 -56 -111 -96 -8 -14 -304 -800 -659 -1747
-698 -1861 -670 -1777 -627 -1860 66 -127 223 -161 327 -70 19 17 41 43 49 58
8 15 304 801 659 1748 526 1403 646 1731 646 1770 -1 147 -144 247 -284 197z"/>
<path d="M1410 3609 c-59 -26 -930 -893 -960 -955 -24 -49 -26 -130 -4 -182
18 -45 878 -911 939 -947 90 -52 181 -40 255 35 70 69 85 158 42 245 -8 17
-177 193 -375 393 l-362 362 362 363 c381 381 402 407 403 492 0 44 -36 131
-66 157 -33 29 -107 58 -149 58 -22 0 -60 -10 -85 -21z"/>
<path d="M3535 3606 c-27 -13 -58 -32 -67 -42 -29 -33 -58 -107 -58 -149 0
-84 22 -111 403 -492 l362 -363 -362 -362 c-381 -382 -403 -409 -403 -493 0
-42 29 -116 58 -149 26 -30 113 -66 158 -66 85 0 114 24 586 497 304 305 452
460 462 485 20 48 20 128 0 176 -23 56 -893 924 -958 957 -63 31 -116 32 -181
1z"/>
</g>
</svg>
